<svg width="763" height="325" viewBox="0 0 763 325" fill="none" xmlns="http://www.w3.org/2000/svg">
<path d="M335.472 87.6936C334.343 86.5077 333.187 85.3487 332.004 84.1898C325.335 77.6404 317.968 71.7648 310.089 66.6708C308.718 65.7813 307.293 64.8919 305.868 64.0564C284.975 51.5505 260.561 44.3812 234.479 44.3812C157.362 44.3812 94.873 107.018 94.873 184.318C94.873 217.577 106.435 248.114 125.795 272.129C126.575 273.099 127.381 274.096 128.215 275.039C133.808 281.616 139.992 287.653 146.66 293.071C147.575 293.798 148.516 294.553 149.43 295.281C167.203 308.972 188.338 318.487 211.381 322.341C211.381 322.341 211.57 322.368 211.677 322.395C215.388 323.015 219.179 323.473 222.997 323.769C223.105 323.769 223.185 323.769 223.293 323.796C226.977 324.093 230.714 324.227 234.452 324.227C311.541 324.227 374.057 261.59 374.057 184.291C374.057 146.827 359.376 112.786 335.445 87.6667L335.472 87.6936ZM327.54 107.638C327.54 107.638 327.701 107.854 327.594 107.989C327.567 108.016 327.54 108.07 327.486 108.123C327.325 108.258 327.244 108.393 327.244 108.636C327.244 108.716 327.164 108.797 327.11 108.878L326.814 109.229H326.76C326.733 108.905 326.518 108.905 326.303 108.878C326.196 108.878 326.088 108.77 325.981 108.689C326.034 108.636 326.088 108.636 326.115 108.609C326.142 108.555 326.169 108.474 326.196 108.42H325.9C325.604 108.743 325.47 108.716 325.174 108.339C325.765 107.854 326.249 107.153 327.083 107.045C327.137 107.234 327.083 107.423 326.895 107.638C327.029 107.773 327.137 107.773 327.271 107.692C327.379 107.638 327.459 107.557 327.567 107.692L327.54 107.638ZM299.979 98.0163C300.168 97.4503 300.517 97.0191 301.162 96.9382C301.27 96.9382 301.378 96.9383 301.485 96.8844C301.754 96.8304 302.023 96.7765 302.292 96.8844C302.399 96.9113 302.534 96.9382 302.587 96.7496C302.614 96.5609 302.588 96.507 302.399 96.507C302.292 96.507 302.211 96.4801 302.13 96.4531C302.13 96.4531 302.104 96.4262 302.104 96.3992C302.346 96.1836 302.588 95.9949 302.83 95.7793C302.991 95.6715 303.125 95.6984 303.206 95.8871C303.233 95.941 303.26 95.968 303.394 96.0758C303.421 96.0219 303.448 95.941 303.475 95.8871C303.717 95.5906 304.147 95.6985 304.281 96.0488C304.443 96.3723 304.47 96.4262 304.846 96.4262H306.97C306.97 96.4262 307.185 96.3723 307.293 96.3184C307.562 96.1566 307.696 96.2106 307.965 96.3453C308.342 96.507 308.718 96.6687 309.121 96.7226C309.901 96.8305 310.681 96.8574 311.461 96.9382C311.622 96.9382 311.73 96.9113 311.837 96.8035C311.945 96.7226 312.052 96.6418 312.16 96.6148C312.456 96.507 312.509 96.5609 312.671 96.8035C312.698 96.8574 312.832 96.9113 312.913 96.9113C313.074 96.9113 313.155 96.9383 313.235 97.1C313.343 97.3425 313.424 97.3425 313.612 97.1269C313.935 96.7765 314.015 96.7496 314.472 96.9652C314.66 97.073 314.876 97.1539 315.091 97.2078C315.386 97.2617 315.682 97.2078 315.951 97.0461C316.112 96.9382 316.247 96.9383 316.354 97.1C316.408 97.1808 316.516 97.2078 316.596 97.2347C316.785 97.2886 316.973 97.2886 317.215 97.3425C317.107 97.4773 317.027 97.5582 316.973 97.639C316.946 97.6929 316.892 97.7738 316.865 97.8277C316.865 97.8816 316.919 97.9355 316.946 97.9894C317 97.9624 317.054 97.9355 317.107 97.8816C317.134 97.8277 317.161 97.7738 317.215 97.666C317.296 97.7738 317.376 97.8277 317.403 97.9085C317.564 98.0972 317.753 98.205 317.995 98.205C318.102 98.205 318.183 98.205 318.29 98.205C318.371 98.232 318.452 98.2859 318.506 98.3667C318.694 98.6902 318.828 98.771 319.178 98.6632C319.258 98.6632 319.339 98.6363 319.42 98.6093C319.662 98.5015 319.796 98.5554 319.877 98.798C319.931 98.9597 320.173 99.0405 320.388 98.9597C320.603 98.8249 320.818 98.9058 321.033 98.9597C321.087 98.9597 321.194 98.9866 321.248 99.0136C321.544 99.0405 321.571 99.0136 321.49 98.7171C321.41 98.4476 321.463 98.3937 321.732 98.4476C322.055 98.5015 322.404 98.6093 322.727 98.6902C323.157 98.8519 323.211 98.9327 323.265 99.364C323.265 99.4448 323.292 99.5796 323.345 99.6065C323.399 99.6065 323.534 99.6065 323.614 99.5526C323.803 99.3909 323.937 99.4448 324.125 99.5526C324.287 99.6335 324.448 99.7144 324.636 99.7144C324.932 99.7144 325.228 99.7144 325.523 99.7144C325.819 99.7144 326.115 99.6065 326.33 99.4179C326.438 99.3101 326.518 99.3101 326.653 99.4179C326.787 99.4987 326.949 99.5257 326.975 99.7144C326.975 99.7144 327.056 99.7144 327.11 99.7144C327.191 99.7144 327.298 99.7144 327.379 99.7144C327.406 99.903 327.298 99.9839 327.137 100.038C326.787 100.146 326.76 100.146 326.975 100.469C327.083 100.631 327.191 100.792 327.298 100.927V100.981C326.975 101.224 326.626 101.466 326.303 101.709C325.954 101.951 325.604 102.221 325.255 102.463C325.201 102.517 325.093 102.598 325.093 102.679C325.093 102.841 324.986 102.922 324.824 102.976C324.287 103.164 323.722 103.434 323.184 103.622C322.996 103.676 322.781 103.649 322.593 103.703C322.485 103.703 322.351 103.757 322.27 103.838C322.109 103.973 321.974 104.161 321.813 104.323C321.759 104.377 321.732 104.458 321.652 104.566C321.813 104.566 321.947 104.566 322.082 104.62C322.136 104.62 322.243 104.647 322.27 104.701C322.297 104.754 322.27 104.862 322.216 104.889C322.001 105.051 321.759 105.186 321.544 105.293C321.436 105.347 321.329 105.401 321.248 105.482C320.522 106.318 320.092 107.288 319.608 108.258C319.447 108.555 319.5 108.851 319.635 109.148C319.796 109.417 319.958 109.687 320.092 109.956C320.2 110.172 320.361 110.334 320.603 110.414C320.979 110.522 321.006 110.711 320.71 110.953C320.442 111.196 320.119 111.385 319.796 111.546C319.5 111.708 319.285 111.87 319.178 112.166C319.07 112.49 318.882 112.813 318.748 113.137C318.586 113.541 318.586 113.676 318.936 114.026C318.828 114.08 318.748 114.134 318.667 114.161C318.317 114.215 317.968 114.215 317.645 114.296C316.919 114.457 316.408 114.889 316.139 115.589C315.978 115.967 315.763 116.317 315.575 116.694C315.548 116.748 315.44 116.802 315.386 116.802C315.36 116.802 315.306 116.694 315.279 116.64C315.198 116.371 314.822 116.263 314.634 116.479C314.338 116.829 314.015 116.802 313.639 116.721C313.316 116.64 313.02 116.667 312.671 116.667C312.052 116.667 311.407 116.667 310.789 116.667C310.358 116.667 310.036 116.829 309.74 117.126C309.579 117.287 309.417 117.314 309.202 117.287C308.826 117.233 308.234 117.584 308.1 117.907C308.073 117.961 308.046 118.042 307.992 118.096C307.831 118.473 307.562 118.635 307.185 118.581C307.051 118.581 306.917 118.446 306.809 118.338C306.675 118.231 306.567 118.15 306.379 118.15C306.217 118.15 306.083 118.096 306.029 117.934C305.975 117.88 305.949 117.799 305.922 117.745C305.733 117.476 305.518 117.206 305.975 116.91C305.841 116.856 305.76 116.856 305.68 116.802C305.572 116.748 305.438 116.721 305.411 116.64C305.384 116.56 305.411 116.398 305.491 116.317C305.653 116.155 305.599 115.859 305.411 115.724C305.034 115.455 304.631 115.32 304.228 115.104C303.986 114.996 303.69 114.996 303.421 114.969C303.367 114.969 303.314 114.942 303.233 114.942C303.233 114.808 303.233 114.673 303.233 114.538C303.233 114.349 303.233 114.161 303.045 114.08C302.991 114.08 302.991 113.918 303.045 113.837C303.26 113.487 303.502 113.11 303.744 112.786C303.851 112.678 304.013 112.625 304.147 112.544C304.255 112.49 304.389 112.382 304.523 112.328C304.362 112.247 304.228 112.22 304.174 112.139C303.986 111.843 303.771 111.573 303.717 111.277C303.69 110.98 303.771 110.657 304.066 110.414C304.174 110.307 304.308 110.226 304.308 110.037C304.308 109.983 304.389 109.902 304.47 109.848C304.631 109.66 304.604 109.471 304.362 109.417C304.066 109.309 303.851 109.121 303.851 108.797C303.878 108.393 303.663 108.177 303.394 107.935C303.34 107.881 303.314 107.8 303.233 107.719H304.201C304.362 107.719 304.443 107.719 304.497 107.557C304.577 107.369 304.685 107.153 304.792 106.965C304.873 106.776 304.846 106.641 304.658 106.56C304.604 106.533 304.55 106.506 304.523 106.452C304.389 106.291 304.47 106.075 304.658 106.021C304.765 105.994 304.873 105.94 304.981 105.886C305.088 105.833 305.088 105.725 305.034 105.617C305.007 105.536 305.034 105.428 305.034 105.293C305.034 105.213 305.088 105.105 305.115 105.024C305.115 104.862 305.115 104.727 305.142 104.62C305.142 104.377 305.196 104.161 304.981 104C304.927 103.946 304.927 103.838 304.846 103.703C305.169 103.811 305.249 103.622 305.357 103.434C305.438 103.272 305.545 103.137 305.76 103.137C306.056 103.137 306.513 102.571 306.54 102.275C306.54 102.086 306.325 101.897 306.11 101.897C306.002 101.897 305.868 101.844 305.787 101.79C305.841 101.52 305.868 101.305 305.922 101.116C305.895 101.116 305.868 101.116 305.841 101.089C305.787 101.116 305.733 101.143 305.68 101.197C305.599 101.143 305.518 101.089 305.438 101.008C305.276 101.17 305.169 101.224 305.034 101.008C304.954 100.9 304.658 100.954 304.577 101.089C304.389 101.385 303.771 101.412 303.475 101.278C303.287 101.17 303.045 101.224 302.803 101.224C302.749 101.224 302.641 101.305 302.587 101.305C302.48 101.305 302.319 101.278 302.319 101.251C302.292 101.143 302.319 101.008 302.346 100.873C302.346 100.819 302.453 100.765 302.534 100.685C302.372 100.388 302.372 100.361 302.077 100.496C302.023 100.523 301.915 100.55 301.862 100.55C301.566 100.496 301.378 100.631 301.216 100.846C301.109 100.954 301.028 101.089 300.813 101.035C300.786 100.685 300.786 100.361 301.136 100.173C301.216 100.119 301.27 100.038 301.324 99.9569C301.324 99.9569 301.297 99.93 301.27 99.903C301.189 99.93 301.109 99.9839 301.028 100.011C300.974 100.038 300.92 100.011 300.84 100.011C300.84 99.9569 300.84 99.8491 300.894 99.8221C301.001 99.7143 301.109 99.6335 301.216 99.5257C301.216 99.5257 301.216 99.4987 301.189 99.4718C301.136 99.4718 301.028 99.4987 300.947 99.4987C300.894 99.4987 300.759 99.4448 300.759 99.4448C300.759 99.364 300.786 99.2562 300.84 99.2023C300.894 99.1214 301.028 99.0944 301.109 99.0136C301.136 98.9866 301.136 98.9058 301.136 98.8519C301.082 98.8519 301.001 98.8519 300.974 98.8519C300.867 98.9058 300.813 99.0136 300.732 99.0675C300.678 99.1214 300.598 99.2562 300.49 99.1214C300.436 99.0675 300.436 98.9058 300.463 98.8249C300.544 98.6632 300.652 98.5824 300.759 98.4476C300.759 98.4206 300.759 98.3937 300.759 98.3667C300.598 98.3937 300.463 98.4206 300.302 98.4745C300.302 98.2589 300.356 98.0703 300.383 97.8277C300.221 97.9624 300.087 98.0433 299.926 98.1781C299.926 98.0433 299.926 97.9894 299.926 97.9355L299.979 98.0163ZM323.05 110.98C323.05 110.98 323.157 110.819 323.238 110.792C323.265 110.792 323.372 110.873 323.426 110.9C323.48 110.953 323.561 110.953 323.668 111.034C323.561 111.088 323.507 111.142 323.48 111.142C323.372 111.142 323.292 111.142 323.184 111.142C323.13 111.142 323.077 111.142 323.023 111.142C323.023 111.115 322.996 111.034 323.023 110.98H323.05ZM322.754 110.441C322.754 110.441 322.727 110.253 322.754 110.172C322.915 109.929 323.077 109.768 323.372 109.741C323.507 109.741 323.587 109.795 323.587 109.929C323.587 110.118 323.184 110.576 322.996 110.576C322.888 110.576 322.754 110.522 322.7 110.441H322.754ZM327.701 192.484C327.217 194.721 326.196 196.446 324.448 197.848C322.996 199.007 321.813 200.435 320.872 202.052C320.388 202.861 319.904 204.02 319.016 204.155C316.301 204.559 316.677 206.823 316.65 208.386C316.623 210.677 315.897 212.779 315.144 214.801C314.069 217.712 313.424 220.865 311.192 223.264C310.627 223.857 310.17 224.585 310.089 225.474C310.089 225.69 309.928 226.067 309.794 226.094C308.046 226.525 306.997 228.52 304.981 228.304C302.749 228.061 300.813 228.681 298.904 229.894C297.532 230.757 295.838 230.972 294.494 232.104C292.746 233.56 291.644 235.015 291.778 237.495C291.859 239.301 291.16 241.214 289.305 242.346C288.068 243.101 287.046 244.017 286.75 245.607C286.427 247.44 284.841 248.41 283.497 249.381C281.614 250.755 280.7 252.831 279.463 254.663C278.038 256.793 276.828 257.601 274.247 257.251C273.548 257.143 272.849 257.413 272.15 257.062C271.612 256.793 271.289 256.011 270.482 256.281C271.316 258.248 272.365 260.216 271.988 262.291C271.397 265.714 268.735 266.9 265.643 267.277C265.347 267.304 265.051 267.358 264.755 267.331C262.792 267.277 261.394 267.493 260.964 270.053C260.453 272.937 259.861 273.018 256.07 272.344C256.474 273.126 256.366 274.15 257.71 274.015C258.436 273.934 258.598 274.662 258.678 275.309C258.759 275.929 258.759 276.522 258.06 276.818C256.554 277.411 256.043 278.489 256.258 280.079C256.447 281.508 255.774 282.37 254.242 282.64C253.435 282.775 252.279 283.044 252.279 284.176C252.279 285.147 253.22 285.632 254 286.063C256.151 287.195 256.42 289.055 254.484 290.618C253.677 291.292 253.193 291.912 253.112 292.963C253.059 293.771 252.494 294.391 251.876 294.876C251.123 295.469 250.881 296.332 251.15 297.14C251.983 299.458 252.655 301.884 254.349 303.798C255.398 304.956 256.85 305.091 258.248 305.307C258.705 305.361 259.351 305.253 259.351 305.9C259.378 306.628 258.678 306.708 258.194 306.708C256.689 306.708 255.64 307.571 254.564 308.379H251.311C248.057 306.628 244.911 304.606 242.895 301.56C241.873 300.024 239.83 298.838 240.26 296.224C240.502 294.93 239.668 293.286 238.915 292.046C237.463 289.648 238.109 289.405 239.426 287.087C238.62 286.925 237.705 287.195 237.006 286.413C239.453 284.607 237.598 281.427 239.346 279.244C238.835 278.947 237.544 279.298 238.243 277.95C239.157 276.144 238.351 274.177 238.566 272.263C238.727 271.077 238.378 269.811 238.646 268.571C238.942 267.223 238.7 265.876 238.109 264.717C237.49 263.531 237.732 262.722 238.162 261.455C239.776 256.9 241.066 252.238 240.018 247.278C239.292 243.882 239.48 240.46 240.475 237.09C241.066 235.069 241.497 232.967 240.959 230.945C240.394 228.87 240.959 226.902 240.905 224.881C240.824 222.59 240.314 220.38 239.883 218.143C239.534 216.283 237.894 215.583 236.684 214.504C234.828 212.806 232.274 212.483 230.15 211.27C228.025 210.057 227.084 207.82 225.175 206.5C224.422 205.961 225.498 204.855 224.799 204.155C223.132 202.538 222.298 200.381 221.088 198.495C220.497 197.578 219.851 196.689 219.582 195.665C218.964 193.239 216.759 191.864 215.899 189.627C215.576 188.846 214.527 188.684 213.748 188.415C212.591 188.01 211.892 187.39 212.188 186.043C212.296 185.585 212.349 185.045 212.188 184.614C211.57 182.916 212.511 181.838 213.694 181.003C214.823 180.194 215.011 179.574 213.748 178.793C212.941 178.28 213.237 177.472 213.075 176.771C212.538 174.184 215.522 172.944 215.011 170.572C214.958 170.356 215.388 169.817 215.63 169.817C217.109 169.656 217.646 168.524 218.211 167.446C218.883 166.152 219.771 165.155 221.196 164.562C222.029 164.238 222.513 163.538 221.949 162.379C221.626 161.705 222.002 160.734 222.002 159.926C222.002 158.47 222.379 156.988 221.465 155.587C220.981 154.832 221.572 154.131 221.975 153.43C222.701 152.191 222.029 150.87 220.604 150.708C219.905 150.6 219.098 150.573 219.663 151.678C220.039 152.46 219.959 153.053 219.206 153.511C218.48 153.942 217.673 154.158 217.055 153.457C216.006 152.218 214.662 152.056 213.183 152.137C211.865 152.218 210.951 151.732 210.844 150.277C210.79 149.468 210.36 149.01 209.526 148.848C207.052 148.444 205.842 147.204 205.143 144.509C204.605 142.461 203.772 139.846 201.648 138.499C199.712 137.286 197.856 135.777 195.302 135.938C193.42 136.046 192.156 134.725 191.296 133.297C190.059 131.276 187.881 130.979 186.052 130.063C185.622 129.847 185.219 130.117 184.923 130.386C183.632 131.599 182.207 131.302 180.728 130.844C176.077 129.389 172.285 126.424 168.306 123.783C166.666 122.705 165.241 121.33 163.278 120.737C162.471 120.495 161.772 119.578 162.256 118.554C162.821 117.341 162.713 116.263 162.095 115.131C161.772 114.538 161.718 113.891 161.799 113.191C161.853 112.732 162.041 112.139 161.557 111.87C160.804 111.439 161.019 112.678 160.347 112.625C160.159 111.978 159.836 111.304 159.836 110.63C159.836 109.444 159.298 108.851 158.249 108.582C156.475 108.123 157.228 106.533 156.771 105.482C156.313 104.485 154.055 104.889 154.7 102.922C154.808 102.571 154.835 102.059 154.539 101.897C152.576 100.819 152.334 98.3398 150.613 97.1C149.645 96.4262 149.511 95.2672 149.564 94.1891C149.672 92.6259 149.242 91.44 147.87 90.5506C147.037 90.0115 146.445 89.0951 145.719 88.3944C145.424 88.1248 145.101 87.7475 144.617 88.017C144.16 88.2865 144.294 88.7447 144.348 89.149C144.832 92.4103 146.499 95.1324 148.462 97.639C150.048 99.6604 151.285 101.709 152.226 104.081C153.06 106.237 154.243 108.285 155.238 110.387C155.534 110.953 155.856 111.627 155.238 112.193C154.62 112.732 153.84 112.678 153.221 112.247C150.855 110.63 148.731 108.797 148.731 105.59C148.731 104.188 148.22 103.164 147.037 102.463C145.746 101.709 144.456 100.927 143.219 100.092C142.251 99.4448 141.74 98.7171 142.95 97.7199C144.025 96.8035 143.972 95.5906 143.299 94.4586C142.762 93.5962 142.197 92.7067 141.444 92.0599C139.32 90.2541 139.212 87.8284 139.159 85.3487C139.132 84.1628 139.669 83.5699 140.879 83.6238C142.547 83.6777 143.918 83.7586 145.504 85.0523C147.36 86.5347 148.865 88.8795 151.608 89.176C152.468 89.2838 153.248 89.3647 154.028 88.9334C154.969 88.4483 155.91 88.2327 156.959 88.3405C157.9 88.4483 158.572 88.2057 159.271 87.3971C160.132 86.4538 161.745 86.6694 162.74 85.753C162.821 85.6722 163.224 85.78 163.224 85.8069C163.116 87.9092 166.343 87.6936 166.074 89.9306C166.074 90.1193 166.235 90.4697 166.397 90.5236C167.768 91.0357 167.929 92.2486 168.118 93.4345C168.279 94.3508 168.709 94.8629 169.65 94.809C170.564 94.7821 170.86 94.2161 170.914 93.3805C170.914 92.7337 170.914 91.9521 171.64 91.7095C172.393 91.44 172.823 92.1138 173.307 92.545C174.84 93.8657 175.539 95.5367 176.157 97.5312C176.695 99.337 178.792 100.55 179.115 102.706C179.169 103.003 179.868 103.029 180.271 102.922C182.046 102.463 182.153 103.515 181.696 104.674C180.379 107.962 180.433 111.142 181.669 114.43C182.073 115.455 181.992 116.667 182.127 117.799C182.53 121.088 185.057 123.271 188.365 123.109C189.252 123.055 190.139 122.839 191.054 122.813C193.823 122.732 195.517 121.519 196.431 118.743C197.48 115.535 200.223 114.242 203.422 115.077C205.385 115.589 205.95 116.991 204.874 118.716C204.767 118.877 204.552 119.039 204.579 119.147C205.197 121.492 203.476 123.136 202.777 125.077C202.401 126.101 202.535 127.206 202.643 128.284C202.911 130.737 203.153 130.817 205.439 130.17C207.025 129.739 208.854 129.524 209.876 131.087C210.602 132.246 213.506 131.087 212.511 133.432C211.946 134.752 212.403 136.019 211.785 137.34C210.951 139.119 211.112 141.194 211.166 143.162C211.166 143.754 211.354 144.24 211.892 144.509C212.86 145.048 213.317 145.803 213.479 146.935C213.667 148.202 216.759 149.01 217.888 148.175C220.039 146.584 220.604 146.584 223.051 148.148C225.471 149.684 226.17 149.388 226.896 146.477C227.084 145.641 227.595 144.967 228.375 144.86C230.015 144.617 231.306 143.539 232.919 143.35C233.887 143.242 234.936 142.892 235.474 141.868C235.85 141.14 236.334 140.574 237.302 140.924C238.082 141.167 238.808 141.49 238.942 142.38C239.13 143.377 238.351 143.701 237.652 144.078C237.571 144.105 237.517 144.24 237.329 144.536C238.673 144.132 240.179 144.32 240.045 142.299C240.018 141.841 240.502 141.464 241.039 141.437C241.497 141.41 241.954 141.544 242.061 141.976C242.33 143.054 243.164 143.296 243.997 143.593C244.266 143.701 244.616 143.889 244.696 144.105C245.422 146.207 247.036 145.83 248.622 145.641C249.644 145.533 250.692 145.452 251.634 146.288C252.252 146.881 253.301 146.746 254 146.288C255.801 145.129 257.818 145.614 259.754 145.426C260.319 145.372 261.072 145.749 260.507 146.342C259.136 147.851 260.803 147.716 261.367 147.959C264.298 149.145 266.584 150.951 268.708 153.403C270.644 155.64 273.252 157.446 276.613 157.285C279.194 157.177 281.561 157.716 283.685 159.279C284.895 160.168 285.997 161.139 287.395 161.759C288.283 162.136 288.552 163.052 288.579 164.023C288.605 165.155 288.794 166.098 289.977 166.88C290.945 167.5 291.644 168.82 290.568 170.141C290.192 170.599 289.573 171.219 290.273 171.65C291.106 172.162 291.59 173.537 292.827 173.16C293.929 172.782 294.844 172.647 295.812 173.51C296.08 173.752 296.618 173.833 296.995 173.806C300.194 173.645 302.668 174.884 304.416 177.553C304.604 177.822 305.007 178.173 305.249 178.146C308.234 177.714 310.896 179.763 313.961 179.143C315.306 178.846 316.516 179.925 317.645 180.733C319.447 181.973 320.845 183.806 323.023 184.506C323.184 184.56 323.345 184.668 323.507 184.722C324.475 185.099 326.196 184.318 326.411 185.477C326.841 187.768 328.185 189.87 327.621 192.43L327.701 192.484ZM329.153 107.288C328.992 107.261 328.858 107.18 328.723 107.153C328.535 107.099 328.32 107.099 328.32 106.857C328.32 106.722 328.562 106.614 328.831 106.614C329.019 106.614 329.261 106.722 329.422 106.938C329.476 107.018 329.422 107.18 329.449 107.315C329.342 107.315 329.261 107.315 329.153 107.288Z" fill="#3BBDC6"/>
<path d="M172.096 26.8083C169.327 26.997 166.557 27.2126 163.761 27.4013C146.095 28.5063 128.725 26.2154 111.409 22.9541C103.1 21.3909 94.7376 20.1241 86.2946 20.2859C74.5174 20.5284 62.9553 22.1186 52.1999 27.59C41.8746 32.8457 34.3727 40.9583 28.6454 50.9846C23.0257 60.8222 20.9015 71.4414 20.794 82.7075C20.6058 100.766 23.7517 118.339 27.7581 135.804C31.2268 150.843 35.6365 165.613 40.6109 180.194C45.7735 195.314 51.5008 210.219 57.9271 224.827C64.972 240.864 72.5814 256.631 81.7235 271.59C86.6979 279.729 91.9412 287.653 98.9054 294.257C100.384 295.658 102.024 296.844 103.772 297.895C107.295 300.024 110.414 299.243 113.425 296.844C118.857 292.505 122.056 286.548 125.122 280.484C125.31 280.134 125.471 279.783 125.66 279.433C131.145 285.847 137.222 291.804 143.729 297.167C143.944 297.329 144.132 297.491 144.347 297.679C144.105 298.165 143.863 298.623 143.621 299.108C139.158 307.544 133.726 315.091 125.229 319.753C114.097 325.872 100.949 326.222 89.9515 317.921C80.3791 310.698 73.3074 301.291 66.9079 291.265C57.6314 276.738 50.237 261.159 43.488 245.284C30.8772 215.502 20.8477 184.83 12.3509 153.619C8.15633 138.283 4.12303 122.867 1.81061 107.072C-0.743807 89.7151 -0.824468 72.3848 3.37015 55.2161C6.54301 42.3059 12.1089 30.5547 21.2511 20.8788C31.1192 10.4752 43.2728 4.51874 57.3087 2.22779C75.5929 -0.736967 93.4201 1.50008 111.005 6.75579C123.992 10.6369 136.496 15.9465 149.295 20.3667C156.447 22.8194 163.626 25.0295 171.128 26.0806C171.451 26.1345 171.747 26.2693 172.069 26.8083H172.096Z" fill="white"/>
<path d="M332.757 77.3171C326.519 71.4954 319.77 66.2128 312.644 61.6039C311.595 60.9301 310.52 60.2563 309.444 59.6094C307.589 53.4913 304.9 47.6426 301.109 42.1174C291.133 27.644 277.232 19.8817 259.808 18.2915C243.567 16.8091 228.805 21.418 214.823 29.2342C199.255 37.9128 183.417 45.9716 165.913 50.0683C156.394 52.2784 146.768 53.8416 137.008 54.4346C132.706 54.7041 128.43 54.9467 124.128 55.2162C124.074 55.0006 124.021 54.785 123.994 54.5694C127.758 53.1678 131.496 51.6855 135.287 50.3648C149.672 45.3517 163.466 39.0987 176.776 31.8216C177.099 31.6329 177.448 31.4712 177.771 31.2825C182.638 28.5873 187.478 25.7573 192.237 22.8195C203.288 15.9466 214.716 9.55893 227.273 5.59694C235.635 2.95561 244.132 1.33846 252.898 0.988077C267.283 0.395125 280.916 3.06342 293.661 9.82846C308.799 17.8603 319.366 30.0966 326.33 45.6212C330.552 55.0815 332.327 65.0269 332.73 75.3227C332.73 75.9695 332.784 76.6433 332.784 77.2902L332.757 77.3171Z" fill="white"/>
<path d="M575.344 245.446C575.344 259.057 571.714 272.021 564.535 284.015C557.356 296.008 546.6 305.846 532.591 313.285C518.636 320.67 502.019 324.416 483.197 324.416C464.375 324.416 448.833 321.155 434.555 314.713C420.17 308.218 408.689 299.081 400.461 287.492C392.179 275.848 387.85 262.237 387.581 247.009L387.527 244.098C387.527 243.748 387.796 243.478 388.119 243.478H430.71C431.033 243.478 431.275 243.721 431.302 244.017L431.571 246.605C432.754 258.383 437.486 268.005 445.983 276.037C454.319 283.934 466.822 287.923 483.17 287.923C499.518 287.923 511.215 284.015 520.088 276.306C528.934 268.625 533.237 259.03 533.237 246.928C533.237 237.63 530.709 230.029 525.708 224.315C520.491 218.386 513.85 213.804 506.025 210.704C497.771 207.443 486.451 203.885 472.388 200.112C454.722 195.503 440.337 190.786 429.662 186.151C418.584 181.326 408.984 173.699 401.16 163.43C393.201 153.026 389.168 138.984 389.168 121.654C389.168 106.453 393.093 92.7877 400.81 81.0365C408.527 69.3122 419.498 60.1214 433.426 53.7337C447.193 47.4269 463.165 44.2195 480.938 44.2195C506.59 44.2195 527.94 50.7959 544.422 63.733C561.039 76.8049 570.558 94.3779 572.682 115.94L572.736 116.452H528.047C527.751 116.452 527.509 116.236 527.456 115.94C526.111 106.884 521.298 99.0406 512.748 91.9522C504.009 84.7289 492.124 81.0634 477.497 81.0634C463.864 81.0634 452.652 84.5942 444.155 91.5748C435.765 98.4746 431.678 107.935 431.678 120.495C431.678 129.416 434.072 136.424 439.019 141.922C444.101 147.609 450.474 152.029 457.975 154.994C465.854 158.147 477.12 161.759 491.452 165.802C509.091 170.68 523.53 175.558 534.339 180.329C545.525 185.261 555.232 192.97 563.191 203.211C571.284 213.642 575.398 227.819 575.398 245.392L575.344 245.446Z" fill="white"/>
<path d="M762.999 44.8664V80.0662C762.999 80.3896 762.73 80.6591 762.408 80.6591H645.335C645.012 80.6591 644.743 80.9286 644.743 81.2521V151.463C644.743 151.786 645.012 152.056 645.335 152.056H741.677C741.999 152.056 742.268 152.325 742.268 152.649V187.39C742.268 187.714 741.999 187.983 741.677 187.983H645.335C645.012 187.983 644.743 188.253 644.743 188.576V323.149C644.743 323.473 644.474 323.742 644.152 323.742H603.012C602.689 323.742 602.42 323.473 602.42 323.149V44.8125C602.42 44.4891 602.689 44.2195 603.012 44.2195H762.435C762.757 44.2195 763.026 44.4891 763.026 44.8125L762.999 44.8664Z" fill="white"/>
</svg>
