<svg width="1390" height="1390" viewBox="0 0 1390 1390" fill="none" xmlns="http://www.w3.org/2000/svg">
<path d="M1148.73 466.204C1145.28 462.58 1141.74 459.039 1138.12 455.497C1117.73 435.484 1095.2 417.529 1071.11 401.963C1066.92 399.245 1062.56 396.528 1058.2 393.974C994.319 355.759 919.662 333.852 839.908 333.852C604.097 333.852 413.016 525.256 413.016 761.465C413.016 863.097 448.371 956.411 507.57 1029.79C509.954 1032.76 512.421 1035.81 514.97 1038.69C532.072 1058.78 550.983 1077.23 571.373 1093.79C574.169 1096.01 577.047 1098.32 579.842 1100.54C634.19 1142.38 698.816 1171.45 769.28 1183.23C769.28 1183.23 769.855 1183.31 770.184 1183.4C781.531 1185.29 793.124 1186.69 804.799 1187.6C805.128 1187.6 805.375 1187.6 805.704 1187.68C816.968 1188.58 828.397 1189 839.825 1189C1075.55 1189 1266.72 997.591 1266.72 761.383C1266.72 646.902 1221.82 542.881 1148.65 466.122L1148.73 466.204ZM1124.47 527.151C1124.47 527.151 1124.97 527.81 1124.64 528.221C1124.56 528.304 1124.47 528.468 1124.31 528.633C1123.82 529.045 1123.57 529.457 1123.57 530.198C1123.57 530.445 1123.32 530.692 1123.16 530.939L1122.25 532.01H1122.09C1122.01 531.022 1121.35 531.022 1120.69 530.939C1120.36 530.939 1120.03 530.61 1119.71 530.363C1119.87 530.198 1120.03 530.198 1120.12 530.116C1120.2 529.951 1120.28 529.704 1120.36 529.539H1119.46C1118.55 530.527 1118.14 530.445 1117.24 529.292C1119.05 527.81 1120.53 525.668 1123.08 525.339C1123.24 525.915 1123.08 526.492 1122.5 527.151C1122.91 527.562 1123.24 527.563 1123.65 527.315C1123.98 527.151 1124.23 526.904 1124.56 527.315L1124.47 527.151ZM1040.2 497.748C1040.77 496.019 1041.84 494.701 1043.82 494.454C1044.14 494.454 1044.47 494.454 1044.8 494.289C1045.62 494.124 1046.45 493.96 1047.27 494.289C1047.6 494.371 1048.01 494.454 1048.17 493.877C1048.26 493.301 1048.17 493.136 1047.6 493.136C1047.27 493.136 1047.02 493.054 1046.78 492.971C1046.78 492.971 1046.69 492.889 1046.69 492.807C1047.43 492.148 1048.17 491.571 1048.91 490.912C1049.41 490.583 1049.82 490.665 1050.06 491.242C1050.15 491.406 1050.23 491.489 1050.64 491.818C1050.72 491.653 1050.8 491.406 1050.89 491.242C1051.63 490.336 1052.94 490.665 1053.35 491.736C1053.85 492.724 1053.93 492.889 1055.08 492.889H1061.58C1061.58 492.889 1062.23 492.724 1062.56 492.559C1063.38 492.065 1063.8 492.23 1064.62 492.642C1065.77 493.136 1066.92 493.63 1068.15 493.795C1070.54 494.124 1072.92 494.207 1075.31 494.454C1075.8 494.454 1076.13 494.371 1076.46 494.042C1076.79 493.795 1077.12 493.548 1077.44 493.465C1078.35 493.136 1078.51 493.301 1079.01 494.042C1079.09 494.207 1079.5 494.371 1079.75 494.371C1080.24 494.371 1080.49 494.454 1080.73 494.948C1081.06 495.689 1081.31 495.689 1081.88 495.03C1082.87 493.96 1083.12 493.877 1084.52 494.536C1085.09 494.866 1085.75 495.113 1086.41 495.277C1087.31 495.442 1088.22 495.277 1089.04 494.783C1089.53 494.454 1089.94 494.454 1090.27 494.948C1090.44 495.195 1090.76 495.277 1091.01 495.36C1091.59 495.524 1092.16 495.524 1092.9 495.689C1092.57 496.101 1092.33 496.348 1092.16 496.595C1092.08 496.76 1091.92 497.007 1091.83 497.172C1091.83 497.336 1092 497.501 1092.08 497.666C1092.24 497.583 1092.41 497.501 1092.57 497.336C1092.66 497.172 1092.74 497.007 1092.9 496.677C1093.15 497.007 1093.4 497.172 1093.48 497.419C1093.97 497.995 1094.55 498.325 1095.29 498.325C1095.62 498.325 1095.86 498.325 1096.19 498.325C1096.44 498.407 1096.68 498.572 1096.85 498.819C1097.42 499.807 1097.84 500.054 1098.9 499.725C1099.15 499.725 1099.4 499.642 1099.64 499.56C1100.38 499.231 1100.8 499.395 1101.04 500.137C1101.21 500.631 1101.95 500.878 1102.6 500.631C1103.26 500.219 1103.92 500.466 1104.58 500.631C1104.74 500.631 1105.07 500.713 1105.24 500.795C1106.14 500.878 1106.22 500.795 1105.98 499.89C1105.73 499.066 1105.89 498.901 1106.72 499.066C1107.7 499.231 1108.77 499.56 1109.76 499.807C1111.07 500.301 1111.24 500.548 1111.4 501.866C1111.4 502.113 1111.48 502.525 1111.65 502.607C1111.81 502.607 1112.22 502.607 1112.47 502.443C1113.05 501.948 1113.46 502.113 1114.03 502.443C1114.53 502.69 1115.02 502.937 1115.59 502.937C1116.5 502.937 1117.4 502.937 1118.31 502.937C1119.21 502.937 1120.12 502.607 1120.77 502.031C1121.1 501.701 1121.35 501.701 1121.76 502.031C1122.17 502.278 1122.67 502.36 1122.75 502.937C1122.75 502.937 1122.99 502.937 1123.16 502.937C1123.41 502.937 1123.73 502.937 1123.98 502.937C1124.06 503.513 1123.73 503.76 1123.24 503.925C1122.17 504.255 1122.09 504.255 1122.75 505.243C1123.08 505.737 1123.41 506.231 1123.73 506.643V506.808C1122.75 507.549 1121.68 508.29 1120.69 509.031C1119.62 509.773 1118.56 510.596 1117.49 511.338C1117.32 511.502 1116.99 511.749 1116.99 511.996C1116.99 512.491 1116.66 512.738 1116.17 512.902C1114.53 513.479 1112.8 514.303 1111.16 514.879C1110.58 515.044 1109.92 514.961 1109.35 515.126C1109.02 515.126 1108.61 515.291 1108.36 515.538C1107.87 515.95 1107.46 516.526 1106.96 517.02C1106.8 517.185 1106.72 517.432 1106.47 517.762C1106.96 517.762 1107.37 517.762 1107.78 517.926C1107.95 517.926 1108.28 518.009 1108.36 518.173C1108.44 518.338 1108.36 518.668 1108.2 518.75C1107.54 519.244 1106.8 519.656 1106.14 519.985C1105.81 520.15 1105.48 520.315 1105.24 520.562C1103.02 523.115 1101.7 526.08 1100.22 529.045C1099.73 529.951 1099.89 530.857 1100.3 531.763C1100.8 532.586 1101.29 533.41 1101.7 534.234C1102.03 534.893 1102.52 535.387 1103.26 535.634C1104.41 535.963 1104.5 536.54 1103.59 537.281C1102.77 538.022 1101.78 538.599 1100.8 539.093C1099.89 539.587 1099.23 540.081 1098.9 540.987C1098.58 541.975 1098 542.964 1097.59 543.952C1097.1 545.188 1097.1 545.599 1098.16 546.67C1097.84 546.835 1097.59 546.999 1097.34 547.082C1096.27 547.247 1095.2 547.247 1094.22 547.494C1092 547.988 1090.44 549.306 1089.61 551.447C1089.12 552.6 1088.46 553.671 1087.89 554.824C1087.8 554.988 1087.48 555.153 1087.31 555.153C1087.23 555.153 1087.06 554.824 1086.98 554.659C1086.74 553.835 1085.58 553.506 1085.01 554.165C1084.1 555.235 1083.12 555.153 1081.97 554.906C1080.98 554.659 1080.08 554.741 1079.01 554.741C1077.12 554.741 1075.14 554.741 1073.25 554.741C1071.94 554.741 1070.95 555.235 1070.04 556.141C1069.55 556.636 1069.06 556.718 1068.4 556.636C1067.25 556.471 1065.44 557.542 1065.03 558.53C1064.95 558.695 1064.86 558.942 1064.7 559.106C1064.21 560.259 1063.38 560.754 1062.23 560.589C1061.82 560.589 1061.41 560.177 1061.08 559.848C1060.67 559.518 1060.34 559.271 1059.77 559.271C1059.27 559.271 1058.86 559.106 1058.7 558.612C1058.53 558.447 1058.45 558.2 1058.37 558.036C1057.79 557.212 1057.14 556.389 1058.53 555.483C1058.12 555.318 1057.88 555.318 1057.63 555.153C1057.3 554.988 1056.89 554.906 1056.81 554.659C1056.72 554.412 1056.81 553.918 1057.05 553.671C1057.55 553.176 1057.38 552.27 1056.81 551.859C1055.66 551.035 1054.42 550.623 1053.19 549.964C1052.45 549.635 1051.54 549.635 1050.72 549.553C1050.56 549.553 1050.39 549.47 1050.15 549.47C1050.15 549.058 1050.15 548.647 1050.15 548.235C1050.15 547.658 1050.15 547.082 1049.57 546.835C1049.41 546.835 1049.41 546.341 1049.57 546.094C1050.23 545.023 1050.97 543.87 1051.71 542.881C1052.04 542.552 1052.53 542.387 1052.94 542.14C1053.27 541.975 1053.68 541.646 1054.09 541.481C1053.6 541.234 1053.19 541.152 1053.02 540.905C1052.45 539.999 1051.79 539.175 1051.63 538.269C1051.54 537.363 1051.79 536.375 1052.7 535.634C1053.02 535.304 1053.44 535.057 1053.44 534.481C1053.44 534.316 1053.68 534.069 1053.93 533.904C1054.42 533.328 1054.34 532.751 1053.6 532.586C1052.7 532.257 1052.04 531.68 1052.04 530.692C1052.12 529.457 1051.46 528.798 1050.64 528.057C1050.48 527.892 1050.39 527.645 1050.15 527.398H1053.11C1053.6 527.398 1053.85 527.398 1054.01 526.904C1054.26 526.327 1054.59 525.668 1054.92 525.092C1055.16 524.515 1055.08 524.103 1054.5 523.856C1054.34 523.774 1054.18 523.692 1054.09 523.527C1053.68 523.033 1053.93 522.374 1054.5 522.209C1054.83 522.127 1055.16 521.962 1055.49 521.797C1055.82 521.633 1055.82 521.303 1055.66 520.974C1055.57 520.727 1055.66 520.397 1055.66 519.985C1055.66 519.738 1055.82 519.409 1055.9 519.162C1055.9 518.668 1055.9 518.256 1055.98 517.926C1055.98 517.185 1056.15 516.526 1055.49 516.032C1055.33 515.867 1055.33 515.538 1055.08 515.126C1056.07 515.456 1056.31 514.879 1056.64 514.303C1056.89 513.808 1057.22 513.397 1057.88 513.397C1058.78 513.397 1060.18 511.667 1060.26 510.761C1060.26 510.185 1059.6 509.608 1058.94 509.608C1058.62 509.608 1058.2 509.443 1057.96 509.279C1058.12 508.455 1058.2 507.796 1058.37 507.22C1058.29 507.22 1058.2 507.22 1058.12 507.137C1057.96 507.22 1057.79 507.302 1057.63 507.467C1057.38 507.302 1057.14 507.137 1056.89 506.89C1056.4 507.384 1056.07 507.549 1055.66 506.89C1055.41 506.561 1054.5 506.725 1054.26 507.137C1053.68 508.043 1051.79 508.125 1050.89 507.714C1050.31 507.384 1049.57 507.549 1048.83 507.549C1048.67 507.549 1048.34 507.796 1048.17 507.796C1047.84 507.796 1047.35 507.714 1047.35 507.631C1047.27 507.302 1047.35 506.89 1047.43 506.478C1047.43 506.314 1047.76 506.149 1048.01 505.902C1047.52 504.996 1047.52 504.913 1046.61 505.325C1046.45 505.408 1046.12 505.49 1045.95 505.49C1045.05 505.325 1044.47 505.737 1043.98 506.396C1043.65 506.725 1043.4 507.137 1042.75 506.972C1042.66 505.902 1042.66 504.913 1043.73 504.337C1043.98 504.172 1044.14 503.925 1044.31 503.678C1044.31 503.678 1044.23 503.596 1044.14 503.513C1043.9 503.596 1043.65 503.76 1043.4 503.843C1043.24 503.925 1043.08 503.843 1042.83 503.843C1042.83 503.678 1042.83 503.349 1042.99 503.266C1043.32 502.937 1043.65 502.69 1043.98 502.36C1043.98 502.36 1043.98 502.278 1043.9 502.196C1043.73 502.196 1043.4 502.278 1043.16 502.278C1042.99 502.278 1042.58 502.113 1042.58 502.113C1042.58 501.866 1042.66 501.537 1042.83 501.372C1042.99 501.125 1043.4 501.043 1043.65 500.795C1043.73 500.713 1043.73 500.466 1043.73 500.301C1043.57 500.301 1043.32 500.301 1043.24 500.301C1042.91 500.466 1042.75 500.795 1042.5 500.96C1042.34 501.125 1042.09 501.537 1041.76 501.125C1041.6 500.96 1041.6 500.466 1041.68 500.219C1041.92 499.725 1042.25 499.478 1042.58 499.066C1042.58 498.984 1042.58 498.901 1042.58 498.819C1042.09 498.901 1041.68 498.984 1041.18 499.148C1041.18 498.489 1041.35 497.913 1041.43 497.172C1040.94 497.583 1040.53 497.831 1040.03 498.242C1040.03 497.831 1040.03 497.666 1040.03 497.501L1040.2 497.748ZM1110.74 537.363C1110.74 537.363 1111.07 536.869 1111.32 536.787C1111.4 536.787 1111.73 537.034 1111.9 537.116C1112.06 537.281 1112.31 537.281 1112.64 537.528C1112.31 537.693 1112.14 537.858 1112.06 537.858C1111.73 537.858 1111.48 537.858 1111.16 537.858C1110.99 537.858 1110.83 537.858 1110.66 537.858C1110.66 537.775 1110.58 537.528 1110.66 537.363H1110.74ZM1109.84 535.716C1109.84 535.716 1109.76 535.14 1109.84 534.893C1110.33 534.151 1110.83 533.657 1111.73 533.575C1112.14 533.575 1112.39 533.739 1112.39 534.151C1112.39 534.728 1111.16 536.128 1110.58 536.128C1110.25 536.128 1109.84 535.963 1109.68 535.716H1109.84ZM1124.97 786.42C1123.49 793.256 1120.36 798.527 1115.02 802.81C1110.58 806.351 1106.96 810.716 1104.08 815.658C1102.6 818.129 1101.12 821.67 1098.41 822.082C1090.11 823.318 1091.26 830.236 1091.18 835.013C1091.09 842.013 1088.87 848.437 1086.57 854.614C1083.28 863.509 1081.31 873.145 1074.48 880.475C1072.76 882.287 1071.36 884.511 1071.11 887.229C1071.11 887.888 1070.62 889.041 1070.21 889.123C1064.86 890.441 1061.66 896.536 1055.49 895.877C1048.67 895.136 1042.75 897.03 1036.91 900.736C1032.72 903.372 1027.54 904.03 1023.43 907.49C1018.08 911.937 1014.71 916.384 1015.12 923.962C1015.37 929.48 1013.23 935.327 1007.56 938.786C1003.77 941.092 1000.65 943.893 999.745 948.752C998.759 954.352 993.908 957.317 989.797 960.282C984.041 964.483 981.246 970.824 977.464 976.425C973.106 982.931 969.406 985.402 961.513 984.331C959.375 984.002 957.237 984.826 955.099 983.755C953.455 982.931 952.468 980.543 950.002 981.367C952.551 987.379 955.757 993.391 954.606 999.733C952.797 1010.19 944.657 1013.82 935.202 1014.97C934.298 1015.05 933.393 1015.22 932.489 1015.13C926.487 1014.97 922.211 1015.63 920.895 1023.45C919.333 1032.26 917.524 1032.51 905.931 1030.45C907.164 1032.84 906.836 1035.97 910.947 1035.56C913.167 1035.31 913.66 1037.54 913.907 1039.51C914.153 1041.41 914.153 1043.22 912.016 1044.12C907.411 1045.94 905.849 1049.23 906.507 1054.09C907.082 1058.46 905.027 1061.09 900.34 1061.91C897.874 1062.33 894.338 1063.15 894.338 1066.61C894.338 1069.57 897.216 1071.06 899.6 1072.37C906.178 1075.83 907 1081.52 901.08 1086.29C898.613 1088.35 897.134 1090.25 896.887 1093.46C896.722 1095.93 894.996 1097.82 893.105 1099.31C890.802 1101.12 890.063 1103.75 890.885 1106.22C893.434 1113.31 895.489 1120.72 900.669 1126.57C903.876 1130.11 908.316 1130.52 912.591 1131.18C913.989 1131.34 915.962 1131.01 915.962 1132.99C916.044 1135.22 913.907 1135.46 912.427 1135.46C907.822 1135.46 904.616 1138.1 901.327 1140.57H891.378C881.429 1135.22 871.809 1129.04 865.643 1119.73C862.518 1115.04 856.27 1111.41 857.585 1103.42C858.325 1099.47 855.776 1094.45 853.474 1090.66C849.034 1083.33 851.007 1082.59 855.036 1075.5C852.57 1075.01 849.774 1075.83 847.636 1073.45C855.119 1067.93 849.445 1058.21 854.79 1051.54C853.227 1050.63 849.281 1051.7 851.419 1047.58C854.214 1042.07 851.747 1036.05 852.405 1030.21C852.899 1026.58 851.83 1022.71 852.652 1018.92C853.556 1014.8 852.816 1010.69 851.007 1007.15C849.116 1003.52 849.856 1001.05 851.172 997.18C856.105 983.261 860.052 969.012 856.845 953.858C854.625 943.481 855.201 933.021 858.243 922.726C860.052 916.549 861.367 910.125 859.723 903.948C857.996 897.606 859.723 891.594 859.558 885.417C859.312 878.416 857.75 871.663 856.434 864.827C855.365 859.144 850.35 857.003 846.65 853.708C840.977 848.52 833.166 847.531 826.67 843.825C820.175 840.119 817.297 833.283 811.459 829.247C809.157 827.6 812.446 824.224 810.308 822.082C805.21 817.141 802.661 810.552 798.962 804.786C797.153 801.986 795.179 799.268 794.357 796.139C792.466 788.726 785.724 784.526 783.093 777.69C782.106 775.302 778.9 774.807 776.515 773.984C772.98 772.748 770.842 770.854 771.746 766.736C772.075 765.336 772.24 763.689 771.746 762.371C769.855 757.182 772.733 753.888 776.351 751.335C779.804 748.864 780.38 746.97 776.515 744.581C774.049 743.016 774.953 740.546 774.46 738.404C772.815 730.498 781.942 726.709 780.38 719.461C780.215 718.803 781.531 717.155 782.271 717.155C786.793 716.661 788.437 713.202 790.164 709.908C792.219 705.954 794.933 702.907 799.29 701.095C801.839 700.107 803.319 697.966 801.593 694.424C800.606 692.365 801.757 689.4 801.757 686.929C801.757 682.482 802.908 677.952 800.113 673.669C798.633 671.363 800.442 669.222 801.675 667.08C803.895 663.292 801.839 659.256 797.482 658.762C795.344 658.433 792.877 658.35 794.604 661.727C795.755 664.116 795.508 665.927 793.206 667.328C790.986 668.645 788.519 669.304 786.628 667.163C783.422 663.374 779.311 662.88 774.789 663.127C770.76 663.374 767.964 661.892 767.635 657.444C767.471 654.974 766.155 653.573 763.606 653.079C756.042 651.844 752.342 648.055 750.204 639.819C748.56 633.56 746.011 625.571 739.516 621.453C733.596 617.747 727.922 613.135 720.111 613.629C714.356 613.958 710.492 609.923 707.86 605.558C704.078 599.38 697.418 598.474 691.827 595.674C690.512 595.015 689.279 595.839 688.374 596.663C684.428 600.369 680.07 599.463 675.548 598.063C661.323 593.615 649.73 584.556 637.561 576.484C632.546 573.19 628.188 568.99 622.186 567.178C619.719 566.436 617.582 563.636 619.062 560.507C620.788 556.8 620.46 553.506 618.568 550.047C617.582 548.235 617.417 546.258 617.664 544.117C617.828 542.717 618.404 540.905 616.924 540.081C614.622 538.763 615.28 542.552 613.224 542.387C612.648 540.411 611.662 538.352 611.662 536.293C611.662 532.669 610.017 530.857 606.811 530.033C601.384 528.633 603.686 523.774 602.289 520.562C600.891 517.515 593.984 518.75 595.958 512.738C596.286 511.667 596.369 510.102 595.464 509.608C589.462 506.314 588.722 498.736 583.46 494.948C580.5 492.889 580.089 489.347 580.253 486.053C580.582 481.276 579.267 477.652 575.073 474.934C572.525 473.287 570.716 470.487 568.496 468.346C567.591 467.522 566.605 466.369 565.125 467.193C563.727 468.016 564.138 469.416 564.302 470.652C565.782 480.617 570.88 488.936 576.882 496.595C581.733 502.772 585.515 509.031 588.393 516.279C590.942 522.868 594.56 529.127 597.602 535.551C598.506 537.281 599.493 539.34 597.602 541.07C595.711 542.717 593.327 542.552 591.435 541.234C584.2 536.293 577.705 530.692 577.705 520.891C577.705 516.609 576.142 513.479 572.525 511.338C568.578 509.031 564.631 506.643 560.849 504.09C557.889 502.113 556.327 499.889 560.027 496.842C563.316 494.042 563.151 490.336 561.096 486.877C559.451 484.241 557.725 481.523 555.423 479.547C548.927 474.028 548.598 466.616 548.434 459.039C548.352 455.415 549.996 453.603 553.696 453.768C558.794 453.933 562.987 454.18 567.838 458.133C573.511 462.663 578.116 469.828 586.502 470.734C589.133 471.063 591.518 471.311 593.902 469.993C596.78 468.51 599.658 467.851 602.864 468.181C605.742 468.51 607.797 467.769 609.935 465.298C612.566 462.416 617.5 463.075 620.542 460.274C620.788 460.027 622.022 460.357 622.022 460.439C621.693 466.863 631.559 466.204 630.737 473.04C630.737 473.617 631.23 474.687 631.724 474.852C635.917 476.417 636.41 480.123 636.986 483.747C637.479 486.547 638.795 488.112 641.673 487.947C644.468 487.865 645.372 486.135 645.537 483.582C645.537 481.606 645.537 479.217 647.757 478.476C650.059 477.652 651.375 479.711 652.855 481.029C657.541 485.065 659.679 490.171 661.57 496.266C663.214 501.784 669.628 505.49 670.614 512.079C670.779 512.985 672.917 513.067 674.15 512.738C679.576 511.338 679.905 514.55 678.508 518.091C674.479 528.139 674.643 537.858 678.425 547.905C679.659 551.035 679.412 554.741 679.823 558.2C681.056 568.248 688.785 574.92 698.898 574.425C701.612 574.261 704.325 573.602 707.121 573.519C715.589 573.272 720.769 569.566 723.565 561.083C726.771 551.282 735.158 547.329 744.942 549.882C750.944 551.447 752.671 555.73 749.382 561.001C749.053 561.495 748.396 561.989 748.478 562.318C750.369 569.484 745.107 574.508 742.969 580.438C741.818 583.567 742.229 586.944 742.558 590.239C743.38 597.733 744.12 597.98 751.109 596.004C755.96 594.686 761.551 594.027 764.675 598.804C766.895 602.345 775.775 598.804 772.733 605.969C771.006 610.005 772.404 613.876 770.513 617.912C767.964 623.347 768.458 629.689 768.622 635.701C768.622 637.513 769.197 638.996 770.842 639.819C773.802 641.466 775.2 643.773 775.693 647.232C776.268 651.103 785.724 653.573 789.177 651.02C795.755 646.161 797.482 646.161 804.964 650.938C812.364 655.632 814.501 654.726 816.721 645.832C817.297 643.278 818.859 641.219 821.243 640.89C826.259 640.149 830.206 636.854 835.139 636.278C838.099 635.948 841.305 634.878 842.95 631.748C844.101 629.524 845.581 627.795 848.541 628.865C850.925 629.607 853.145 630.595 853.556 633.313C854.132 636.36 851.747 637.348 849.61 638.502C849.363 638.584 849.199 638.996 848.623 639.902C852.734 638.666 857.339 639.243 856.927 633.066C856.845 631.666 858.325 630.513 859.97 630.43C861.367 630.348 862.765 630.76 863.094 632.077C863.916 635.372 866.465 636.113 869.014 637.019C869.836 637.348 870.905 637.925 871.152 638.584C873.372 645.008 878.305 643.855 883.156 643.278C886.28 642.949 889.487 642.702 892.365 645.255C894.256 647.067 897.462 646.655 899.6 645.255C905.109 641.714 911.276 643.196 917.196 642.62C918.922 642.455 921.224 643.608 919.498 645.42C915.304 650.032 920.402 649.62 922.129 650.361C931.091 653.985 938.08 659.503 944.575 666.998C950.495 673.834 958.471 679.352 968.748 678.858C976.641 678.528 983.877 680.176 990.372 684.953C994.072 687.67 997.443 690.635 1001.72 692.53C1004.43 693.683 1005.25 696.483 1005.34 699.448C1005.42 702.907 1005.99 705.79 1009.61 708.178C1012.57 710.072 1014.71 714.108 1011.42 718.144C1010.27 719.544 1008.38 721.438 1010.52 722.756C1013.07 724.321 1014.55 728.521 1018.33 727.368C1021.7 726.215 1024.49 725.803 1027.45 728.439C1028.28 729.18 1029.92 729.427 1031.07 729.345C1040.86 728.851 1048.42 732.639 1053.76 740.793C1054.34 741.616 1055.57 742.687 1056.31 742.605C1065.44 741.287 1073.58 747.546 1082.95 745.652C1087.06 744.746 1090.76 748.04 1094.22 750.511C1099.73 754.3 1104 759.9 1110.66 762.042C1111.16 762.206 1111.65 762.536 1112.14 762.7C1115.1 763.854 1120.36 761.465 1121.02 765.007C1122.34 772.007 1126.45 778.431 1124.72 786.255L1124.97 786.42ZM1129.41 526.08C1128.91 525.998 1128.5 525.751 1128.09 525.668C1127.52 525.503 1126.86 525.503 1126.86 524.762C1126.86 524.35 1127.6 524.021 1128.42 524.021C1129 524.021 1129.74 524.35 1130.23 525.009C1130.39 525.256 1130.23 525.751 1130.31 526.162C1129.98 526.162 1129.74 526.162 1129.41 526.08Z" fill="#40BAC4"/>
<path d="M649.155 280.155C640.686 280.732 632.217 281.391 623.666 281.967C569.647 285.344 516.532 278.343 463.582 268.378C438.175 263.601 412.605 259.73 386.787 260.224C350.774 260.965 315.419 265.825 282.531 282.544C250.958 298.604 228.018 323.394 210.505 354.032C193.321 384.094 186.825 416.543 186.497 450.97C185.921 506.151 195.541 559.85 207.792 613.219C218.398 659.176 231.883 704.31 247.094 748.866C262.88 795.07 280.393 840.615 300.044 885.255C321.586 934.259 344.854 982.44 372.81 1028.15C388.021 1053.02 404.054 1077.24 425.349 1097.41C429.871 1101.7 434.887 1105.32 440.231 1108.53C451.002 1115.04 460.54 1112.65 469.748 1105.32C486.357 1092.06 496.141 1073.86 505.515 1055.33C506.09 1054.26 506.583 1053.19 507.159 1052.12C523.932 1071.72 542.514 1089.92 562.412 1106.31C563.069 1106.8 563.645 1107.3 564.303 1107.87C563.563 1109.36 562.823 1110.76 562.083 1112.24C548.434 1138.02 531.825 1161.08 505.843 1175.33C471.804 1194.02 431.598 1195.09 397.969 1169.73C368.699 1147.65 347.074 1118.91 327.506 1088.27C299.14 1043.88 276.529 996.276 255.891 947.766C217.329 856.758 186.661 763.032 160.679 667.659C147.853 620.796 135.519 573.686 128.448 525.423C120.637 472.384 120.391 419.426 133.217 366.963C142.919 327.512 159.939 291.603 187.894 262.036C218.069 230.245 255.233 212.043 298.153 205.043C354.063 195.983 408.576 202.819 462.348 218.879C502.061 230.739 540.294 246.964 579.431 260.471C601.302 267.966 623.255 274.719 646.195 277.931C647.181 278.096 648.086 278.508 649.073 280.155H649.155Z" fill="white"/>
<path d="M1140.43 434.499C1121.35 416.709 1100.71 400.566 1078.92 386.483C1075.72 384.424 1072.43 382.365 1069.14 380.388C1063.47 361.692 1055.24 343.82 1043.65 326.936C1013.15 282.709 970.639 258.989 917.36 254.13C867.698 249.6 822.558 263.684 779.804 287.568C732.197 314.088 683.769 338.714 630.243 351.233C601.137 357.986 571.702 362.763 541.856 364.575C528.7 365.399 515.627 366.14 502.472 366.963C502.307 366.305 502.143 365.646 502.061 364.987C513.572 360.704 525 356.174 536.593 352.139C580.582 336.82 622.761 317.712 663.461 295.475C664.447 294.898 665.516 294.404 666.503 293.828C681.385 285.592 696.185 276.944 710.738 267.967C744.531 246.965 779.475 227.445 817.872 215.339C843.443 207.267 869.425 202.326 896.229 201.255C940.217 199.443 981.903 207.597 1020.88 228.269C1067.17 252.812 1099.48 290.204 1120.77 337.643C1133.68 366.552 1139.11 396.943 1140.34 428.404C1140.34 430.381 1140.51 432.44 1140.51 434.416L1140.43 434.499Z" fill="white"/>
</svg>
